<svg xmlns="http://www.w3.org/2000/svg" width="586" height="31" viewBox="0 0 586 31" fill="none"><path d="M18.8542 22.948L21.5534 6.71158H25.8722L23.1708 22.948H18.8542ZM38.7727 7.06274C37.5319 6.60386 36.2214 6.37466 34.9023 6.3855C30.6352 6.3855 27.6307 8.58693 27.6031 11.7425C27.5789 14.0762 29.7494 15.3768 31.3877 16.1535C33.069 16.9506 33.6331 17.4563 33.6254 18.1676C33.6144 19.256 32.2824 19.7484 31.0418 19.7484C29.6409 19.7903 28.2497 19.4984 26.9775 18.8959L26.4266 18.6373L25.8195 22.2716C27.3592 22.8538 28.9886 23.1472 30.6297 23.1376C35.1701 23.1376 38.1216 20.9608 38.1503 17.5907C38.1668 15.7436 37.0165 14.3381 34.5244 13.1797C33.015 12.4289 32.0906 11.9276 32.1005 11.1678C32.1005 10.4904 32.8827 9.77143 34.5739 9.77143C35.6819 9.74583 36.783 9.95747 37.8065 10.3933L38.1933 10.5807L38.7783 7.06274H38.7727ZM49.8917 6.71268H46.5544C46.0854 6.65059 45.6097 6.74916 45.2009 6.99273C44.7921 7.23629 44.473 7.61134 44.2936 8.05972L37.8805 22.9389H42.4153C42.4153 22.9389 43.1567 20.9384 43.3242 20.4992L48.855 20.5059C48.9839 21.0704 49.3793 22.94 49.3793 22.94H53.3877L49.8917 6.71406V6.71268ZM44.6032 17.1957C44.9602 16.2609 46.3231 12.6571 46.3231 12.6571C46.2977 12.7011 46.6779 11.7177 46.896 11.108L47.1881 12.508L48.1874 17.1957H44.6032ZM15.1995 6.71268L10.971 17.785L10.5138 15.5416C9.41881 12.5868 7.28589 10.1579 4.53345 8.73145L8.40063 22.9298H12.9696L19.7684 6.72536H15.1941" fill="#767676"></path><path d="M7.01941 5.63166H0.0551417L0 5.97042C5.41845 7.31394 9.00354 10.5621 10.4909 14.4639L8.976 7.00351C8.86557 6.57159 8.60673 6.19487 8.24705 5.94286C7.88737 5.69085 7.45117 5.58038 7.01833 5.63166" fill="#767676"></path><path d="M89.9248 17.3287C89.9644 16.8027 90.0338 16.2795 90.1322 15.7617C90.2204 15.213 90.7867 11.7504 90.7867 11.7504H91.7494C92.3433 8.82071 93.7827 6.14157 95.8809 4.06063C93.419 1.92067 90.2952 0.746858 87.0669 0.748292C83.4402 0.752177 79.9633 2.23001 77.3988 4.85777C74.8342 7.48553 73.3918 11.0484 73.3877 14.7647C73.3918 18.4809 74.8339 22.0437 77.3982 24.6714C79.9625 27.2991 83.4393 28.7773 87.0658 28.7814C90.2943 28.7837 93.4183 27.6098 95.8799 25.4691C93.9604 23.5661 92.5885 21.1589 91.9137 18.5109C91.6533 18.5836 91.3847 18.6217 91.1148 18.6239C90.9482 18.6397 90.7802 18.6162 90.6237 18.5556C90.4671 18.4949 90.3261 18.3987 90.2113 18.2739C90.0967 18.149 90.0113 17.9991 89.9617 17.8353C89.9121 17.6716 89.8994 17.4982 89.9248 17.3287V17.3287ZM79.1663 18.5189L80.0311 12.9618L78.0998 18.5189H77.0706L76.9439 12.9935L76.035 18.5189H74.6215L75.8026 11.2931H77.9741L78.0347 15.7686L79.5001 11.2931H81.8446L80.6769 18.5189H79.1663ZM84.2409 18.5189L84.2686 17.9092C84.0788 18.1478 83.8363 18.3365 83.5612 18.4602C83.2861 18.5839 82.9863 18.6388 82.6865 18.6203C82.4901 18.6171 82.2965 18.5719 82.1181 18.4875C81.9398 18.4031 81.7807 18.2816 81.6509 18.1305C81.5211 17.9793 81.4234 17.802 81.3644 17.6099C81.3054 17.4178 81.2863 17.2152 81.3082 17.015C81.3082 15.5834 82.2833 14.749 83.958 14.749C84.1643 14.7512 84.3702 14.7664 84.5747 14.7942C84.6107 14.6702 84.6303 14.5418 84.6331 14.4125C84.6331 14.023 84.371 13.8786 83.6658 13.8786C83.1223 13.8776 82.5822 13.9663 82.0662 14.1415C82.0827 14.0444 82.2755 12.8207 82.2755 12.8207C82.8591 12.6227 83.4686 12.5178 84.0833 12.5092C85.3801 12.5092 86.0665 13.1063 86.0665 14.2308C86.0554 14.6223 86.0144 15.0122 85.9433 15.397C85.8133 16.2483 85.5322 18.0741 85.4936 18.5189H84.2409ZM88.6622 15.0189C88.9916 15.1327 89.275 15.3553 89.4676 15.6517C89.6602 15.9482 89.7512 16.3017 89.7266 16.657C89.7266 18.0005 88.9906 18.6226 87.3975 18.6226C86.869 18.6256 86.3419 18.5675 85.8263 18.4489C85.8351 18.3868 86.0334 17.0939 86.0334 17.0939C86.4696 17.2456 86.9269 17.3239 87.3875 17.3254C87.9847 17.3254 88.2558 17.1595 88.2558 16.7937C88.2558 16.5272 88.1612 16.4392 87.5497 16.1446C87.2131 16.0309 86.9204 15.8105 86.7137 15.5156C86.507 15.2206 86.3968 14.866 86.3993 14.5029C86.3993 13.4156 86.9789 12.5125 88.6679 12.5125C89.1127 12.5205 89.5566 12.5583 89.9967 12.6255L89.7828 13.9891C89.4233 13.9354 89.061 13.9058 88.6977 13.9001C88.2096 13.9001 87.9583 14.0638 87.9583 14.381C87.9638 14.6531 88.0299 14.7198 88.6689 15.0145L88.6622 15.0189Z" fill="#767676"></path><path d="M82.7745 16.7697C82.7665 16.8466 82.7747 16.9242 82.7984 16.9976C82.8222 17.071 82.8609 17.1385 82.9122 17.1952C82.9634 17.2519 83.0261 17.2966 83.0956 17.3264C83.1652 17.3562 83.24 17.3705 83.3154 17.3681C83.9313 17.3681 84.3732 16.7685 84.3997 15.9003C84.2902 15.8846 84.1797 15.8767 84.0691 15.8766C83.2042 15.8777 82.7745 16.1713 82.7745 16.7697Z" fill="#767676"></path><path d="M107.853 15.8776C106.998 15.8776 106.564 16.1779 106.564 16.7717C106.555 16.8486 106.564 16.9265 106.587 17C106.611 17.0734 106.65 17.1406 106.701 17.1973C106.753 17.254 106.815 17.2987 106.885 17.3285C106.954 17.3583 107.029 17.3726 107.105 17.3701C107.72 17.3701 108.163 16.7706 108.189 15.9024C108.077 15.8864 107.965 15.8781 107.853 15.8776V15.8776Z" fill="#767676"></path><path d="M106.017 0.741945C102.789 0.740216 99.6647 1.91434 97.2029 4.05456C99.5012 6.33256 101.003 9.32312 101.475 12.5638C101.756 12.1136 102.142 11.7437 102.6 11.4882C103.058 11.2328 103.571 11.1001 104.092 11.1029C104.662 11.1345 105.223 11.2615 105.752 11.4788L105.506 13.0483C105.094 12.8063 104.631 12.6719 104.157 12.6575C103.03 12.6575 102.239 13.7731 102.239 15.3673C102.239 16.4647 102.77 17.1286 103.648 17.1286C104.098 17.1075 104.536 16.9807 104.931 16.7581L104.665 18.4053C104.233 18.5414 103.784 18.6129 103.332 18.6176C102.955 18.6327 102.58 18.5585 102.236 18.4007C101.892 18.2428 101.589 18.0057 101.349 17.7077C100.766 20.6645 99.3212 23.3705 97.2061 25.4685C99.6677 27.609 102.792 28.7829 106.02 28.7809C109.647 28.7767 113.124 27.2988 115.688 24.6711C118.252 22.0434 119.695 18.4807 119.7 14.7644C119.697 11.0466 118.254 7.48181 115.689 4.8528C113.123 2.22379 109.645 0.745234 106.017 0.741945V0.741945ZM109.283 18.5115H108.033L108.061 17.9018C107.871 18.1403 107.628 18.3294 107.353 18.453C107.078 18.5767 106.778 18.6316 106.479 18.6132C106.282 18.61 106.089 18.5647 105.91 18.4803C105.732 18.3959 105.573 18.2742 105.443 18.1231C105.313 17.9719 105.215 17.7948 105.156 17.6027C105.097 17.4106 105.078 17.2078 105.099 17.0076C105.099 15.576 106.075 14.7418 107.75 14.7418C107.956 14.7439 108.162 14.7588 108.366 14.7868C108.401 14.6627 108.421 14.5345 108.424 14.4053C108.424 14.0158 108.162 13.8714 107.457 13.8714C106.914 13.8706 106.374 13.9593 105.858 14.1343L106.068 12.8135C106.651 12.6156 107.26 12.5104 107.874 12.5017C109.171 12.5017 109.858 13.0992 109.858 14.2236C109.847 14.6151 109.806 15.005 109.735 15.3899C109.609 16.2434 109.322 18.0722 109.278 18.5126L109.283 18.5115ZM111.298 18.5115H109.788L109.856 18.1165C110.12 16.2954 110.455 14.4526 110.644 12.6338H112.031C112.026 12.9328 111.996 13.2309 111.941 13.5246C112.404 12.8292 112.757 12.4633 113.389 12.5977C113.112 13.1322 112.919 13.7078 112.816 14.3036C111.966 14.2223 111.834 14.9223 111.294 18.5126L111.298 18.5115ZM115.848 18.5115L115.918 17.964C115.748 18.1716 115.535 18.3374 115.294 18.4497C115.053 18.562 114.79 18.6179 114.526 18.6132C113.424 18.6132 112.702 17.6443 112.702 16.1732C112.702 14.2189 113.827 12.5695 115.159 12.5695C115.446 12.5679 115.729 12.6406 115.981 12.7807C116.233 12.9208 116.446 13.1239 116.601 13.3711L116.932 11.2823H118.42L117.271 18.5082L115.848 18.5115Z" fill="#767676"></path><path d="M115.448 14.02C114.762 14.02 114.276 14.8397 114.276 15.9958C114.276 16.7646 114.537 17.154 115.048 17.154C115.752 17.154 116.245 16.3379 116.245 15.1727C116.241 14.4265 115.965 14.02 115.448 14.02Z" fill="#767676"></path><path d="M95.265 13.8451C94.788 13.8451 94.4452 14.2187 94.3064 14.8939H95.959C95.97 14.7708 96.1244 13.8451 95.265 13.8451Z" fill="#767676"></path><path d="M100.743 14.632C100.742 14.1733 100.716 13.7153 100.667 13.2594C100.544 13.601 100.449 13.9525 100.383 14.3104C99.5357 14.2223 99.4057 14.9257 98.867 18.5205H97.3564L97.4258 18.1252C97.688 16.3041 98.0241 14.4616 98.2136 12.6417H99.5994C99.5937 12.941 99.5637 13.2394 99.5093 13.5336C99.8718 12.9883 100.17 12.6474 100.582 12.5887C100.116 9.56813 98.6966 6.78699 96.5421 4.67078C94.3752 6.79993 92.9529 9.60126 92.4953 12.6417H92.8853L92.6806 14.054H92.35C92.339 14.29 92.3323 14.5283 92.3323 14.7677C92.3316 16.6544 92.704 18.5217 93.4268 20.257C94.1495 21.9923 95.2078 23.5595 96.5378 24.8642C98.9544 22.4906 100.435 19.2891 100.697 15.8694C100.689 15.7497 100.684 15.6278 100.684 15.5014C100.684 15.2106 100.704 14.9201 100.743 14.632V14.632ZM95.4955 17.2933C96.0367 17.2929 96.5707 17.1657 97.0567 16.9218L96.8066 18.3895C96.3073 18.5493 95.7872 18.6295 95.2642 18.6277C94.9177 18.6734 94.5654 18.637 94.2348 18.5213C93.9042 18.4056 93.6037 18.2137 93.3568 17.9604C93.11 17.707 92.9234 17.3989 92.8111 17.0599C92.6987 16.7208 92.6638 16.36 92.7091 16.005C92.7091 13.9942 93.823 12.5151 95.3358 12.5151C95.6107 12.4978 95.8859 12.5413 96.143 12.6428C96.4 12.7443 96.6329 12.9014 96.8254 13.1034C97.018 13.3053 97.1657 13.5474 97.2587 13.8131C97.3517 14.0789 97.3877 14.362 97.3642 14.6433C97.3574 15.1312 97.2953 15.6165 97.1791 16.0896H94.1899C94.0885 16.9352 94.6306 17.2853 95.4988 17.2853L95.4955 17.2933Z" fill="#767676"></path><path d="M320.907 9.7425H321.117L321.284 9.68489L321.452 9.62728L321.6 9.47375L321.747 9.31912L321.824 9.11487L321.904 8.90925V8.30643L321.834 8.19342L321.766 8.08068L321.645 8.00488L321.524 7.92825H321.003L320.825 8.01067L320.649 8.09088L320.545 8.20361L320.443 8.31663L320.362 8.51178L320.281 8.7061L320.264 9.00985L320.25 9.31471L320.325 9.46576L320.398 9.61708L320.545 9.68489L320.689 9.7527L320.907 9.7425ZM354.413 18.4019H355.17V17.9278L355.257 17.3396C355.306 17.0167 355.385 16.5041 355.434 16.2015C355.482 15.8989 355.543 15.5163 355.569 15.3503C355.594 15.1844 355.66 14.8253 355.719 14.5521C355.777 14.2789 355.848 13.9875 355.877 13.8961C355.903 13.8301 355.921 13.7617 355.932 13.6918C355.971 13.57 356.019 13.4515 356.076 13.3374L356.218 13.0278L356.405 12.7718L356.593 12.5154L356.801 12.3561C356.929 12.2589 357.065 12.1725 357.206 12.0975L357.403 11.9994H358.27L358.44 12.0548L358.611 12.1099L358.639 12.092L358.668 12.0738V11.9611C358.686 11.7876 358.714 11.6153 358.751 11.4451L358.833 11.0443L358.741 11.0071C358.654 10.9744 358.564 10.9427 358.477 10.9145L358.304 10.8591H357.681L357.427 10.9506L357.173 11.0419L356.982 11.1549L356.792 11.2679L356.544 11.5341L356.296 11.7996L356.162 12.006C356.123 12.0776 356.075 12.1435 356.018 12.2015C356.018 12.1947 356.054 11.9586 356.108 11.6753C356.162 11.3919 356.207 11.1244 356.207 11.0815V11.0013H354.926V11.0239C354.926 11.0364 354.893 11.2633 354.855 11.5297C354.816 11.7962 354.738 12.3077 354.681 12.6689C354.613 13.101 354.544 13.5326 354.475 13.9639C354.415 14.3365 354.35 14.7101 354.283 15.0816C354.234 15.3447 354.15 15.8088 354.094 16.1114C354.037 16.414 353.945 16.9017 353.888 17.193L353.721 18.0532L353.657 18.3818L354.413 18.4019ZM336.862 18.4019H337.602L337.625 18.0814C337.636 17.9052 337.679 17.5496 337.716 17.2911C337.754 17.0326 337.835 16.5178 337.894 16.1475C337.968 15.6891 338.048 15.2318 338.136 14.7756C338.211 14.3929 338.293 14.0113 338.323 13.9289C338.347 13.8646 338.363 13.798 338.374 13.7301C338.405 13.6185 338.447 13.5102 338.498 13.4063C338.58 13.2283 338.673 13.0562 338.777 12.8914L338.938 12.6519L339.147 12.4509L339.359 12.25L339.62 12.1235L339.88 11.995H340.677L340.872 12.0559C340.983 12.0887 341.078 12.1157 341.093 12.1157C341.108 12.1157 341.113 12.0785 341.113 12.0322C341.113 11.9859 341.152 11.7523 341.2 11.5129C341.247 11.2736 341.286 11.0611 341.286 11.0611C341.207 11.0148 341.123 10.9811 341.034 10.9608C340.895 10.9178 340.754 10.8841 340.61 10.8602L340.436 10.8376L340.216 10.8795C340.077 10.9068 339.941 10.9444 339.807 10.9922C339.678 11.0446 339.553 11.109 339.435 11.1844C339.308 11.2709 339.189 11.3685 339.079 11.4765C338.954 11.6081 338.838 11.7481 338.732 11.8955L338.504 12.215L338.453 12.2861L338.485 12.1439C338.5 12.0648 338.548 11.8051 338.587 11.5793C338.625 11.3535 338.668 11.1279 338.678 11.0917L338.696 11.0294H337.375V11.1154C337.375 11.1617 337.335 11.445 337.288 11.7453C337.242 12.0456 337.161 12.5448 337.112 12.8564C337.064 13.168 336.978 13.712 336.922 14.0631C336.861 14.4395 336.798 14.812 336.731 15.1808C336.601 15.8906 336.468 16.6 336.332 17.309C336.272 17.6116 336.203 17.9686 336.177 18.0995C336.151 18.2305 336.129 18.358 336.129 18.3738V18.4055L336.862 18.4019ZM319.441 18.4019H320.187L320.208 18.3457C320.223 18.2867 320.23 18.2258 320.229 18.1649C320.229 18.0971 320.275 17.7427 320.333 17.3746C320.463 16.5467 320.598 15.7164 320.736 14.884C320.794 14.534 320.856 14.1862 320.921 13.8374C320.976 13.545 321.061 13.0889 321.108 12.8214C321.155 12.5538 321.252 12.0569 321.321 11.7081C321.389 11.3592 321.453 11.0588 321.463 11.0419L321.481 11.0104L320.728 11.0195L319.975 11.0294L319.912 11.4914C319.877 11.7454 319.802 12.2478 319.744 12.6091C319.687 12.9704 319.599 13.5213 319.55 13.833C319.491 14.2067 319.427 14.5781 319.361 14.9507C319.306 15.2532 319.22 15.716 319.171 15.9802C319.123 16.2444 319.037 16.7074 318.979 17.0089C318.922 17.3103 318.844 17.711 318.807 17.8961C318.769 18.0813 318.729 18.2689 318.717 18.3129L318.696 18.3931L319.441 18.4019ZM310.127 18.4019H310.968L311.028 18.0204C311.062 17.8104 311.127 17.4074 311.171 17.1252L311.362 15.9543C311.421 15.593 311.51 15.059 311.559 14.7654C311.609 14.4719 311.685 14.018 311.73 13.7561C311.755 13.5884 311.789 13.4226 311.833 13.2594L311.854 13.239H316.378L316.403 13.2638L316.428 13.2888L316.391 13.4942C316.369 13.6071 316.304 13.9549 316.248 14.2676C316.192 14.5804 316.096 15.1074 316.038 15.4394C315.975 15.7886 315.912 16.1375 315.847 16.486C315.801 16.7298 315.708 17.2414 315.641 17.6219C315.574 18.0023 315.52 18.3344 315.52 18.3592V18.403H317.21L317.246 18.1773C317.266 18.0565 317.3 17.8387 317.319 17.6897C317.338 17.5406 317.388 17.2313 317.429 16.9975C317.471 16.7638 317.539 16.3008 317.6 15.9689C317.661 15.6369 317.751 15.0657 317.808 14.7089C317.865 14.3522 317.953 13.8206 318 13.5383C318.06 13.183 318.122 12.828 318.187 12.4735C318.244 12.1698 318.338 11.6597 318.395 11.3379C318.451 11.0161 318.539 10.5284 318.587 10.2563C318.636 9.98419 318.723 9.48732 318.781 9.15539C318.84 8.82346 318.917 8.43625 318.948 8.29513L319.006 8.03768H317.295L317.272 8.20582C317.259 8.2984 317.218 8.55805 317.18 8.78273C317.143 9.0074 317.07 9.40609 317.028 9.67028C316.986 9.93447 316.898 10.4357 316.841 10.788C316.784 11.1402 316.731 11.4767 316.68 11.8222L316.623 12.2172L315.367 12.2434L314.111 12.2682L313.058 12.2434C312.48 12.2287 312.003 12.215 312 12.2117C312.008 12.1085 312.023 12.0059 312.044 11.9046C312.081 11.6923 312.12 11.4798 312.162 11.2668C312.215 10.9958 312.267 10.7236 312.317 10.4503C312.363 10.1873 312.419 9.85981 312.438 9.7232C312.457 9.58659 312.496 9.35966 312.525 9.21741C312.555 9.07515 312.609 8.77719 312.648 8.55478C312.686 8.33236 312.726 8.1258 312.739 8.09419L312.76 8.03768H311.062L311.007 8.34805C310.978 8.51853 310.939 8.7624 310.92 8.88885C310.901 9.0153 310.837 9.42293 310.78 9.79211C310.723 10.1613 310.636 10.7134 310.588 11.0159L310.398 12.2398C310.331 12.6658 310.261 13.0915 310.187 13.5168C310.125 13.866 310.062 14.2149 309.999 14.5634C309.954 14.8084 309.868 15.2714 309.809 15.5943C309.749 15.9172 309.679 16.2716 309.614 16.6103C309.567 16.8451 309.516 17.1149 309.505 17.2131C309.494 17.3113 309.435 17.5924 309.385 17.8385C309.336 18.0846 309.296 18.3127 309.296 18.3443V18.4008H310.138L310.127 18.4019ZM360.5 18.5747H360.831L361.143 18.5229C361.314 18.4947 361.533 18.4494 361.627 18.4212C361.758 18.3791 361.886 18.3257 362.009 18.2619L362.216 18.1492L362.395 17.9876L362.575 17.8261L362.763 17.5687C362.838 17.4691 362.908 17.3655 362.972 17.2583L362.99 17.2054L362.973 17.3826C362.961 17.5008 362.945 17.6189 362.925 17.7371C362.909 17.8342 362.885 18.0215 362.873 18.1536L362.85 18.3931H364.209V17.9132L364.312 17.01C364.368 16.5132 364.453 15.8504 364.499 15.5422C364.545 15.234 364.609 14.7825 364.656 14.5488C364.703 14.3151 364.766 13.8917 364.817 13.6083C364.868 13.3249 364.951 12.8303 365.007 12.5085C365.063 12.1868 365.158 11.6766 365.212 11.3729C365.266 11.0692 365.35 10.5995 365.401 10.3263C365.452 10.0531 365.539 9.57425 365.597 9.26151C365.655 8.94877 365.722 8.61006 365.788 8.28603C365.834 8.06023 365.871 7.86603 365.871 7.85135V7.82544H364.389L364.367 8.05119C364.354 8.17199 364.297 8.57614 364.241 8.94646C364.172 9.38451 364.103 9.82264 364.034 10.2607C363.991 10.5125 363.951 10.7653 363.911 11.017L363.892 11.1301L363.835 11.1041C363.801 11.0906 363.627 11.0397 363.447 10.9911L363.116 10.9076L362.666 10.8715L362.216 10.8354L361.836 10.8715L361.455 10.9076L361.11 10.998L360.763 11.0882L360.432 11.253L360.102 11.4178L359.859 11.6008L359.618 11.785L359.409 12.0107C359.277 12.1582 359.154 12.3134 359.04 12.4757L358.879 12.7106L358.69 13.1113C358.589 13.3371 358.462 13.6252 358.41 13.7618C358.358 13.8985 358.273 14.2009 358.213 14.4391L358.103 14.8636L358.051 15.4146L357.999 15.9656L358.037 16.4093L358.078 16.8542L358.124 17.0133C358.148 17.1013 358.203 17.2572 358.243 17.3611L358.316 17.5497L358.449 17.7349L358.585 17.9209L358.736 18.0486L358.888 18.1762L359.096 18.2812C359.233 18.3485 359.376 18.4043 359.522 18.4482C359.665 18.487 359.809 18.5172 359.955 18.5386C360.074 18.5544 360.317 18.5692 360.499 18.5714L360.5 18.5747ZM361.091 17.5676L360.83 17.5813L360.654 17.5485C360.535 17.5242 360.42 17.4884 360.309 17.4413L360.14 17.3677L359.999 17.2481L359.856 17.1354L359.645 16.7208L359.598 16.4951L359.55 16.2693V15.347L359.604 14.9383L359.661 14.5306L359.748 14.2472C359.784 14.1401 359.813 14.0307 359.836 13.9198C359.864 13.8222 359.901 13.7274 359.946 13.6364C360.013 13.484 360.084 13.3317 360.16 13.1849C360.233 13.0444 360.316 12.9089 360.407 12.7795C360.5 12.6546 360.602 12.5362 360.711 12.425C360.81 12.3293 360.917 12.2424 361.03 12.1654L361.187 12.0672L361.459 11.9713L361.731 11.874H362.874L363.204 11.9677C363.385 12.0185 363.577 12.0806 363.631 12.0997L363.729 12.1383L363.709 12.2354C363.699 12.2896 363.657 12.5243 363.617 12.758C363.578 12.9917 363.5 13.4355 363.443 13.7516C363.387 14.0678 363.302 14.5352 363.25 14.7982C363.199 15.0613 363.131 15.3976 363.093 15.5433C363.054 15.6889 363.015 15.8438 362.974 15.9951C362.935 16.1284 362.887 16.2585 362.83 16.3845C362.77 16.5106 362.702 16.6325 362.626 16.7492C362.56 16.846 362.486 16.9367 362.405 17.0202C362.308 17.107 362.206 17.1872 362.099 17.2605L361.909 17.3892L361.358 17.5687L361.096 17.5836L361.091 17.5676ZM348.795 18.5612L349.264 18.5466L349.558 18.4697L349.852 18.3931L350.042 18.3016C350.174 18.2347 350.301 18.1594 350.424 18.0758C350.552 17.9849 350.673 17.8837 350.785 17.7732C350.894 17.6595 350.996 17.5395 351.091 17.414C351.133 17.3487 351.183 17.2891 351.239 17.2368C351.234 17.3591 351.221 17.481 351.2 17.6015C351.174 17.7927 351.157 17.9853 351.151 18.1784V18.4044H352.422L352.442 17.8997L352.461 17.3939L352.552 16.7368C352.602 16.3755 352.682 15.8404 352.732 15.548C352.782 15.2556 352.864 14.7576 352.919 14.4471C352.974 14.1366 353.059 13.6477 353.11 13.3655L353.203 12.8506V11.9622L353.104 11.7555L353.006 11.5501L352.874 11.4192L352.741 11.2869L352.521 11.1742L352.3 11.0611L351.651 10.9134L351.201 10.8784L350.754 10.8445L350.178 10.8806C349.86 10.9009 349.413 10.9403 349.186 10.9685L348.772 11.0206H348.206L348.163 11.2249C348.14 11.3378 348.078 11.603 348.024 11.8175C347.986 11.9485 347.956 12.082 347.936 12.2172C348.048 12.1997 348.158 12.1738 348.266 12.1394C348.445 12.0898 348.826 12.0094 349.111 11.9586L349.632 11.8674L350.1 11.8481L350.566 11.8277L351.169 11.9407L351.369 12.0424L351.57 12.1439L351.681 12.3156L351.791 12.487V13.0289L351.73 13.3272L351.671 13.6251H349.179L348.771 13.7381C348.584 13.7892 348.4 13.8518 348.22 13.9256C348.164 13.9561 348.105 13.98 348.044 13.9967C347.941 14.0442 347.841 14.1004 347.747 14.1648L347.482 14.333L347.274 14.5463C347.156 14.6676 347.048 14.7985 346.95 14.9372C346.861 15.0815 346.783 15.2323 346.716 15.3887L346.606 15.6654L346.553 15.9736L346.5 16.2839V16.9344L346.55 17.204L346.602 17.4752L346.694 17.6511C346.756 17.7627 346.826 17.8688 346.905 17.9683L347.021 18.1084L347.229 18.2371L347.436 18.3658L347.672 18.4347C347.801 18.472 348.003 18.5184 348.113 18.5364L348.316 18.5692L348.783 18.5555L348.795 18.5612ZM349.229 17.5687L348.953 17.5836L348.769 17.5361C348.652 17.504 348.537 17.4605 348.428 17.4063L348.27 17.3239L348.185 17.22C348.124 17.1417 348.07 17.0572 348.024 16.9681L347.952 16.8225L347.936 16.4838L347.921 16.145L347.979 15.9374C348.026 15.7873 348.082 15.6404 348.148 15.4981L348.259 15.2723L348.468 15.0579L348.677 14.8456L348.898 14.7326L349.118 14.6199L349.396 14.5521L349.673 14.4854H351.404L351.458 14.5091L351.513 14.5317L351.467 14.8106C351.442 14.9642 351.381 15.2407 351.333 15.4259C351.284 15.611 351.2 15.8776 351.143 16.0312C351.087 16.1847 351.041 16.3098 351.041 16.3211C351.004 16.4041 350.962 16.4843 350.914 16.5607L350.786 16.7784L350.579 16.9896C350.508 17.0688 350.429 17.1397 350.343 17.2007C350.288 17.2228 350.235 17.253 350.188 17.29L350.06 17.3779L349.78 17.4694L349.499 17.561L349.223 17.5756L349.229 17.5687ZM343.1 18.5747H343.482L343.914 18.5215C344.152 18.4933 344.464 18.4459 344.617 18.4154C344.799 18.3785 344.979 18.3353 345.156 18.2856C345.256 18.2599 345.355 18.2261 345.449 18.1842C345.492 18.0684 345.522 17.9483 345.541 17.8261C345.574 17.6432 345.619 17.3972 345.638 17.2809C345.654 17.2068 345.661 17.131 345.659 17.0552C345.653 17.0473 345.628 17.0552 345.603 17.0778C345.482 17.141 345.356 17.1954 345.227 17.2404L344.896 17.3677L344.421 17.4614L343.945 17.5552L343.541 17.5406L343.137 17.5259L342.908 17.4446L342.678 17.3633L342.502 17.204L342.324 17.0461L342.207 16.8203L342.09 16.6012L342.033 16.3076L341.976 16.0141V15.2519L342.045 14.7902L342.114 14.3286L342.186 14.0802C342.226 13.9436 342.271 13.7844 342.286 13.7257C342.326 13.599 342.373 13.4745 342.426 13.3531C342.489 13.2074 342.6 12.9804 342.675 12.8506L342.809 12.6146L342.974 12.4396L343.137 12.2646L343.312 12.1518L343.485 12.0388L343.705 11.9688C343.864 11.921 344.025 11.8835 344.188 11.8561L344.448 11.8142L344.829 11.8346L345.209 11.855L345.659 11.9473L346.11 12.0388L346.294 12.1088C346.394 12.1484 346.481 12.1789 346.486 12.1789C346.511 12.0829 346.529 11.9851 346.539 11.8864C346.564 11.725 346.607 11.4608 346.636 11.2982C346.659 11.1963 346.671 11.0924 346.672 10.9878C346.573 10.9634 346.473 10.9472 346.372 10.9393C346.214 10.9201 345.789 10.8885 345.425 10.8671L344.764 10.8285L344.297 10.866L343.83 10.9021L343.485 10.9765L343.138 11.0498L342.917 11.1425C342.78 11.2008 342.647 11.2682 342.519 11.3445C342.427 11.4021 342.335 11.4576 342.245 11.5264C342.118 11.6326 341.996 11.7454 341.881 11.8649L341.615 12.1325L341.466 12.3583C341.353 12.5405 341.248 12.729 341.154 12.9228L340.989 13.2616L340.863 13.6353C340.793 13.8397 340.696 14.1749 340.642 14.3793L340.553 14.753L340.521 15.0918L340.488 15.4306V16.3178L340.522 16.5764L340.554 16.8349L340.664 17.1004L340.767 17.3655L340.887 17.5576L341.006 17.7484L341.196 17.9402L341.387 18.1332L341.59 18.2462L341.79 18.3592L342.056 18.4347C342.21 18.478 342.366 18.513 342.523 18.5397C342.717 18.5621 342.912 18.5741 343.107 18.5758L343.1 18.5747ZM332.09 18.5747H332.469L332.85 18.5386C333.059 18.5194 333.4 18.4776 333.612 18.4482C333.824 18.4189 334.184 18.3499 334.416 18.298L334.839 18.2021L334.86 18.0419C334.872 17.9539 334.92 17.6918 334.97 17.4592L335.056 17.037L335.037 17.0179L335.018 16.9998L334.889 17.0629C334.818 17.099 334.596 17.1826 334.396 17.2503L334.032 17.3735L333.652 17.449L333.269 17.5237H332.057L331.85 17.4548C331.722 17.4125 331.597 17.3619 331.476 17.3035L331.312 17.22L331.038 16.9659L330.928 16.7751L330.818 16.5844L330.749 16.3448L330.683 16.1056V15.2183L330.741 14.8219L330.802 14.4267L331.844 14.376L333.771 14.3895L335.697 14.4008L335.754 14.1491C335.787 14.0091 335.835 13.7222 335.864 13.5099L335.915 13.124V12.4746L335.86 12.2332L335.805 11.9903L335.715 11.8302C335.658 11.7304 335.592 11.6354 335.519 11.5465C335.45 11.4678 335.374 11.3963 335.291 11.3332C335.222 11.2847 335.088 11.2024 334.994 11.1494L334.819 11.0556L334.516 10.9809L334.216 10.9065L333.842 10.8704L333.471 10.8332L333.125 10.8569L332.779 10.8795L332.364 10.9619L331.948 11.0432L331.689 11.1505C331.524 11.2198 331.362 11.2986 331.206 11.3864C331.073 11.4643 330.946 11.551 330.824 11.646C330.738 11.7172 330.591 11.856 330.494 11.9531C330.379 12.0746 330.273 12.2051 330.178 12.3437C330.082 12.4928 329.995 12.6469 329.916 12.8054C329.847 12.9431 329.761 13.1341 329.721 13.2312C329.682 13.3283 329.611 13.528 329.561 13.6747C329.51 13.8215 329.435 14.1004 329.39 14.2958C329.337 14.5317 329.291 14.7712 329.252 15.0094L329.197 15.3683V16.4251L329.25 16.6508C329.284 16.7948 329.325 16.9371 329.373 17.0767C329.417 17.1986 329.47 17.317 329.531 17.4311C329.598 17.5433 329.676 17.6488 329.762 17.7462C329.861 17.8492 329.967 17.9449 330.079 18.0328C330.197 18.1195 330.323 18.195 330.454 18.2586L330.659 18.3534L330.942 18.4245C331.098 18.4629 331.333 18.5093 331.466 18.5262C331.598 18.5432 331.876 18.5601 332.087 18.5634L332.09 18.5747ZM332.741 13.5755C331.782 13.5755 330.999 13.5688 330.999 13.5598C330.999 13.5508 331.04 13.4275 331.09 13.2853C331.14 13.143 331.228 12.9308 331.284 12.8134L331.394 12.6011L331.623 12.3674L331.852 12.1337L332.073 12.0209C332.19 11.9631 332.311 11.9139 332.435 11.874C332.596 11.8442 332.758 11.8246 332.92 11.8153L333.266 11.7927L333.532 11.8277L333.798 11.8627L333.992 11.9531L334.185 12.0446L334.295 12.1574C334.354 12.2221 334.405 12.2929 334.449 12.3685L334.498 12.4622L334.53 12.67L334.563 12.879L334.525 13.2243L334.489 13.5711L332.741 13.5755ZM322.437 21.7043L322.457 21.6478C322.472 21.5954 322.479 21.5412 322.479 21.4866C322.479 21.429 322.503 21.2189 322.534 21.0202C322.564 20.8215 322.634 20.3621 322.691 20.0042C322.749 19.6463 322.83 19.1009 322.877 18.7972C322.925 18.4935 322.964 18.2237 323.004 17.9369C323.011 17.831 323.032 17.7263 323.067 17.6263C323.112 17.6758 323.15 17.7328 323.177 17.7947L323.263 17.9628L323.456 18.1605L323.648 18.3592L323.883 18.4551L324.12 18.5521L324.401 18.5883L324.684 18.6255L325.041 18.6029L325.398 18.5792L325.786 18.4766L326.173 18.3749L326.381 18.2779C326.536 18.2008 326.686 18.1145 326.83 18.0193L327.073 17.8578L327.294 17.6252C327.432 17.4823 327.563 17.3317 327.685 17.1737C327.744 17.0973 327.798 17.0164 327.846 16.9319C327.873 16.8728 327.906 16.8166 327.945 16.7638C328.037 16.6015 328.118 16.4333 328.189 16.2602C328.271 16.0649 328.396 15.7128 328.47 15.4791L328.605 15.0535L328.674 14.6841C328.711 14.4809 328.762 14.1457 328.784 13.9391L328.826 13.5631L328.802 13.2436L328.778 12.9242L328.707 12.6044L328.635 12.2861L328.517 12.0468L328.401 11.8076L328.174 11.5625L327.948 11.3164L327.415 11.033L327.119 10.9608L326.825 10.8883L326.531 10.866L326.237 10.8434L325.906 10.8817L325.576 10.92L325.308 10.99L325.04 11.06L324.808 11.1731C324.666 11.24 324.528 11.3153 324.394 11.3988C324.315 11.4487 324.238 11.5045 324.166 11.5658C324.123 11.607 324.077 11.6449 324.028 11.6789L323.937 11.7398L324.001 11.4269C324.036 11.2553 324.066 11.0962 324.066 11.0713V11.0272H322.797L322.687 11.7453C322.625 12.1404 322.528 12.7514 322.466 13.1003C322.342 13.8763 322.215 14.651 322.088 15.4248C322.03 15.7635 321.936 16.3089 321.879 16.6307C321.823 16.9524 321.737 17.421 321.691 17.6773C321.645 17.9336 321.559 18.4088 321.5 18.7407C321.431 19.1313 321.36 19.5221 321.288 19.9127C321.219 20.2785 321.151 20.6453 321.081 21.0122C321.024 21.3046 320.971 21.5767 320.958 21.6252L320.939 21.7032H322.429L322.437 21.7043ZM324.609 17.6186L324.42 17.5847L324.23 17.5508L324.04 17.4603L323.848 17.3702L323.714 17.239L323.579 17.1081L323.501 16.9308C323.451 16.8117 323.41 16.6887 323.38 16.5629L323.336 16.3721L323.353 16.0662L323.371 15.7602L323.459 15.2803C323.527 14.9145 323.592 14.5475 323.655 14.1805C323.716 13.8418 323.804 13.3384 323.854 13.0686L323.945 12.5774L324.143 12.4082C324.265 12.3064 324.393 12.2134 324.528 12.1303L324.715 12.0173L324.958 11.9418L325.199 11.8638L325.824 11.8266L326.076 11.882L326.331 11.9374L326.51 12.022L326.689 12.1066L326.841 12.2613L326.99 12.4159L327.071 12.5796C327.128 12.7056 327.175 12.8369 327.209 12.9716L327.268 13.1973L327.251 13.8746L327.233 14.5521L327.145 14.9507C327.095 15.1697 327.004 15.5049 326.937 15.6946L326.82 16.0425L326.674 16.3236C326.593 16.4836 326.502 16.6385 326.402 16.7875C326.328 16.8921 326.245 16.9891 326.152 17.0767C326.073 17.1467 325.989 17.2154 325.904 17.2798L325.777 17.3768L325.189 17.5825L324.611 17.6175L324.609 17.6186Z" fill="#767676"></path><path d="M230.921 7.58393C231.674 7.32491 232.464 7.19407 233.259 7.19666C234.963 7.19542 236.615 7.7982 237.934 8.90285C239.254 10.0075 240.16 11.5459 240.498 13.2571L245.567 12.1981C244.988 9.29167 243.448 6.67911 241.206 4.80247C238.964 2.92583 236.159 1.90024 233.264 1.89918C231.913 1.89745 230.571 2.12147 229.29 2.56209L230.926 7.58503L230.921 7.58393Z" fill="#767676"></path><path d="M224.944 24.41L228.369 20.4359C227.585 19.7254 226.958 18.852 226.529 17.8738C226.1 16.8956 225.879 15.8351 225.881 14.7627C225.879 13.6917 226.1 12.6326 226.529 11.656C226.958 10.6794 227.585 9.80774 228.369 9.09944L224.944 5.1366C223.611 6.34297 222.544 7.82642 221.814 9.48808C221.084 11.1497 220.708 12.9517 220.71 14.774C220.709 16.5959 221.086 18.3972 221.816 20.0585C222.546 21.7198 223.612 23.203 224.944 24.41V24.41Z" fill="#767676"></path><path d="M240.497 16.2827C240.156 17.9914 239.249 19.5268 237.93 20.629C236.611 21.7311 234.961 22.3323 233.259 22.3308C232.46 22.3325 231.667 22.2021 230.91 21.9446L229.272 26.9678C230.557 27.4075 231.904 27.6309 233.259 27.6293C236.152 27.6305 238.957 26.6071 241.199 24.7324C243.441 22.8577 244.982 20.2468 245.561 17.3417L240.493 16.2816L240.497 16.2827Z" fill="#767676"></path><path d="M262.438 19.8352C262.014 20.2643 261.51 20.6026 260.957 20.83C260.404 21.0574 259.813 21.1694 259.217 21.1596C258.391 21.1496 257.585 20.9007 256.891 20.4416L255.212 23.1792C256.401 23.9466 257.774 24.3633 259.179 24.3829C260.19 24.3981 261.194 24.2085 262.133 23.8253C263.072 23.4421 263.928 22.8727 264.652 22.1497L262.449 19.833L262.438 19.8352ZM259.4 8.67491C257.369 8.64532 255.41 9.44222 253.952 10.8908C252.494 12.3393 251.656 14.3212 251.623 16.4019C251.596 17.9637 252.027 19.4977 252.862 20.8049L266.737 14.7229C266.344 13.0224 265.41 11.5045 264.082 10.4089C262.753 9.31339 261.106 8.70276 259.401 8.6738L259.4 8.67491ZM254.802 17.0196C254.781 16.8364 254.77 16.652 254.77 16.4675C254.789 15.2424 255.282 14.0752 256.14 13.2224C256.999 12.3696 258.153 11.901 259.348 11.9197C259.993 11.9276 260.628 12.0789 261.21 12.3629C261.792 12.6469 262.307 13.0569 262.72 13.5647L254.802 17.0196ZM271.101 5.14124V20.2969L273.665 21.3898L272.453 24.3818L269.911 23.3002C269.399 23.0733 268.965 22.6971 268.661 22.2186C268.32 21.6562 268.147 21.0038 268.165 20.3421V5.14234L271.101 5.14124ZM280.355 12.1501C280.818 11.9961 281.302 11.9196 281.788 11.9241C282.827 11.9243 283.835 12.2928 284.64 12.9669C285.445 13.6409 285.997 14.5791 286.205 15.6229L289.296 14.9702C288.943 13.1972 288.003 11.6038 286.635 10.4594C285.267 9.31496 283.555 8.6898 281.789 8.68952C280.966 8.68996 280.147 8.82451 279.365 9.08809L280.356 12.1568L280.355 12.1501ZM276.704 22.4047L278.797 19.9876C278.318 19.5538 277.935 19.0203 277.673 18.4225C277.411 17.8248 277.277 17.1766 277.279 16.5215C277.279 15.8682 277.413 15.2224 277.675 14.6267C277.937 14.0311 278.32 13.4991 278.797 13.0666L276.704 10.6485C275.891 11.3852 275.24 12.2907 274.794 13.3051C274.348 14.3194 274.118 15.4193 274.119 16.5317C274.118 17.6423 274.349 18.7402 274.794 19.7525C275.24 20.7648 275.891 21.6682 276.704 22.4025V22.4047ZM286.206 17.4597C285.997 18.5026 285.443 19.4395 284.639 20.113C283.834 20.7865 282.828 21.1553 281.789 21.1571C281.302 21.1555 280.818 21.0737 280.356 20.9146L279.354 23.9844C280.138 24.255 280.961 24.3925 281.788 24.3918C283.554 24.3921 285.266 23.7669 286.634 22.6222C288.002 21.4774 288.943 19.8834 289.295 18.11L286.204 17.4597H286.206Z" fill="#767676"></path><path d="M404.616 1.75357H398.655C396.965 1.71601 395.284 2.03018 393.715 2.67695C392.146 3.32372 390.721 4.28967 389.526 5.51657C388.332 6.74362 387.393 8.20598 386.765 9.81541C386.138 11.4248 385.835 13.1479 385.875 14.8805C385.907 18.326 387.27 21.6182 389.665 24.0364C392.061 26.4545 395.293 27.8015 398.655 27.7828H404.618C411.546 27.8167 417.871 21.9809 417.871 14.8805C417.852 13.1236 417.494 11.3879 416.816 9.77406C416.137 8.16027 415.153 6.70059 413.92 5.47936C412.687 4.25839 411.23 3.30024 409.633 2.66069C408.036 2.02114 406.331 1.71285 404.617 1.75357H404.616ZM398.691 26.6844C395.611 26.6808 392.658 25.4234 390.482 23.1891C388.306 20.9547 387.086 17.9264 387.089 14.77C387.086 11.6133 388.307 8.58451 390.483 6.34982C392.658 4.11513 395.611 2.85755 398.692 2.85336C401.772 2.85755 404.725 4.1151 406.901 6.34982C409.076 8.58454 410.297 11.6134 410.293 14.77C410.296 17.9265 409.074 20.9546 406.898 23.1885C404.722 25.4224 401.769 26.6792 398.689 26.6822L398.691 26.6844Z" fill="#767676"></path><path d="M391.365 14.7323C391.367 16.2577 391.819 17.7469 392.662 19.0044C393.504 20.2619 394.698 21.2288 396.087 21.7784V7.68396C394.698 8.23353 393.503 9.2006 392.66 10.4585C391.817 11.7165 391.365 13.2063 391.364 14.7323H391.365Z" fill="#767676"></path><path d="M401.345 7.6864V21.7844C402.735 21.235 403.93 20.2675 404.773 19.0093C405.616 17.7511 406.068 16.261 406.07 14.7347C406.068 13.2086 405.616 11.7189 404.773 10.461C403.929 9.20303 402.735 8.23579 401.345 7.6864V7.6864Z" fill="#767676"></path><path d="M184.722 6.35422L183.541 9.16214H185.908L184.722 6.35422ZM171.099 8.09515C171.214 8.02906 171.308 7.93104 171.37 7.81234C171.433 7.69364 171.461 7.55913 171.452 7.42452C171.46 7.29559 171.43 7.16715 171.366 7.05599C171.302 6.94484 171.206 6.85612 171.092 6.8013C170.834 6.69656 170.556 6.65326 170.279 6.67479H168.167V8.23958H170.25C170.543 8.26928 170.838 8.21875 171.104 8.09294L171.099 8.09515ZM144.036 6.35422L142.87 9.16214H145.21L144.036 6.35422ZM198.376 24.3473H195.064V22.8365H198.363C198.607 22.8675 198.854 22.8055 199.057 22.6618C199.121 22.6045 199.172 22.5337 199.208 22.4545C199.243 22.3752 199.261 22.289 199.261 22.202C199.264 22.1128 199.247 22.0239 199.211 21.9429C199.174 21.8618 199.119 21.791 199.051 21.7359C198.874 21.6117 198.66 21.5565 198.447 21.5802C196.837 21.526 194.827 21.6286 194.827 19.3977C194.827 18.3815 195.488 17.3001 197.289 17.3001H200.704V15.8976H197.53C196.774 15.8591 196.024 16.0606 195.384 16.4745V15.8976H190.688C189.962 15.8566 189.243 16.0591 188.64 16.4745V15.8976H180.254V16.4745C179.546 16.0779 178.748 15.879 177.941 15.8976H172.41V16.4745C171.683 16.0272 170.838 15.8254 169.993 15.8976H163.803L162.386 17.4026L161.064 15.8976H151.818V25.7301H160.889L162.349 24.2015L163.724 25.7301H169.315V23.417H169.866C170.677 23.4677 171.489 23.35 172.255 23.0714V25.7246H176.867V23.1618H177.087C177.37 23.1618 177.398 23.1731 177.398 23.452V25.7246H191.41C192.231 25.7578 193.044 25.5383 193.743 25.0945V25.7246H198.188C199.048 25.7551 199.905 25.6014 200.703 25.2731V23.4407C200.413 23.7694 200.05 24.0227 199.645 24.1797C199.24 24.3367 198.805 24.3931 198.375 24.344L198.376 24.3473ZM169.938 22.0248H167.797V24.3889H164.463L162.351 22.0565L160.156 24.3889H153.362V17.3417H160.26L162.37 19.6518L164.551 17.3417H170.031C171.392 17.3417 172.921 17.7121 172.921 19.6642C172.921 21.6163 171.434 22.0248 169.935 22.0248H169.938ZM180.228 21.7053C180.463 22.088 180.564 22.5421 180.512 22.9914V24.3878H178.79V23.506C178.79 23.0827 178.832 22.4539 178.514 22.1265C178.149 21.8587 177.698 21.7471 177.254 21.815H175.422V24.3878H173.704V17.3406H177.664C178.368 17.2808 179.076 17.3945 179.728 17.6724C180.008 17.8164 180.241 18.0416 180.398 18.3199C180.554 18.5983 180.628 18.9176 180.609 19.2383C180.617 19.6398 180.505 20.0343 180.288 20.369C180.072 20.7037 179.761 20.9632 179.397 21.1127C179.725 21.2262 180.016 21.4309 180.237 21.7042L180.228 21.7053ZM187.313 18.7992H183.296V20.0807H187.215V21.5179H183.296V22.92L187.313 22.9269V24.3889H181.584V17.3417H187.313V18.7992ZM191.72 24.3889H188.38V22.8784H191.707C191.953 22.9075 192.202 22.8454 192.407 22.7034C192.471 22.646 192.522 22.5753 192.557 22.4961C192.592 22.4169 192.61 22.3309 192.61 22.2439C192.611 22.1551 192.593 22.0671 192.556 21.9864C192.52 21.9058 192.467 21.8344 192.4 21.7775C192.22 21.6546 192.005 21.5996 191.79 21.6218C190.186 21.5676 188.176 21.6705 188.176 19.4407C188.176 18.4178 188.831 17.3428 190.629 17.3428H194.068V18.8422H190.922C190.686 18.8145 190.447 18.8593 190.235 18.971C190.15 19.0216 190.08 19.0959 190.035 19.1854C189.989 19.275 189.969 19.3761 189.977 19.4768C189.976 19.5941 190.012 19.7088 190.08 19.8034C190.148 19.898 190.244 19.9674 190.353 20.0016C190.57 20.0658 190.795 20.093 191.02 20.0818L191.943 20.1066C192.642 20.0417 193.339 20.2426 193.902 20.6711C194.086 20.8683 194.228 21.1037 194.316 21.3613C194.405 21.6189 194.438 21.8927 194.415 22.1648C194.415 23.681 193.45 24.3889 191.72 24.3889V24.3889ZM178.418 18.9134C178.159 18.805 177.879 18.7612 177.6 18.7857H175.488V20.3662H177.572C177.861 20.3924 178.153 20.3424 178.418 20.2207C178.531 20.1514 178.624 20.0517 178.687 19.9324C178.75 19.8131 178.78 19.6785 178.774 19.5432C178.781 19.4134 178.752 19.2841 178.688 19.1714C178.625 19.0586 178.531 18.9673 178.418 18.9087V18.9134ZM197.582 18.7857C197.343 18.7579 197.102 18.8023 196.888 18.9134C196.804 18.9661 196.737 19.0411 196.693 19.1306C196.649 19.22 196.63 19.3204 196.638 19.4203C196.635 19.538 196.67 19.6533 196.738 19.7483C196.806 19.8432 196.903 19.9125 197.013 19.9453C197.228 20.0083 197.451 20.0348 197.674 20.0242L198.604 20.049C199.299 19.9813 199.994 20.1827 200.551 20.6135C200.611 20.6642 200.664 20.7227 200.71 20.7874V18.7824H197.583L197.582 18.7857ZM169.997 18.7857H167.76V20.581H169.977C170.638 20.581 171.046 20.259 171.046 19.6504C171.046 19.0419 170.62 18.7846 170.003 18.7846L169.997 18.7857ZM155.072 18.7857V20.0672H158.836V21.5044H155.072V22.9065H159.289L161.248 20.8395L159.375 18.7857H155.072ZM166.089 23.7139V18.0688L163.456 20.8472L166.089 23.7172V23.7139ZM155.221 12.4001V13.6137H169.551L169.544 11.0453H169.822C170.016 11.0521 170.072 11.0691 170.072 11.3841V13.6148H177.484V13.0164C178.344 13.4336 179.287 13.6386 180.238 13.6148H183.356L184.024 12.0489H185.503L186.156 13.6148H192.165V12.128L193.073 13.6137H197.889V3.79134H193.124V4.95205L192.456 3.79134H187.567V4.95205L186.955 3.79134H180.345C179.359 3.74411 178.376 3.9409 177.48 4.36495V3.79134H172.922V4.36495C172.364 3.94352 171.677 3.74008 170.985 3.79134H154.335L153.217 6.32941L152.069 3.79134H146.825V4.95205L146.249 3.79134H141.777L139.7 8.46312V12.2002L142.772 5.1552H145.32L148.236 11.8264V5.1552H151.036L153.28 9.9342L155.342 5.1552H158.198V12.2002H156.436L156.429 6.68278L153.942 12.2002H152.441L149.947 6.67809V12.2002H146.46L145.799 10.6296H142.228L141.567 12.2002H139.705V13.6184H142.636L143.297 12.0533H144.777L145.438 13.6184H151.204V12.4204L151.719 13.6228H154.713L155.227 12.4023L155.221 12.4001ZM177.807 5.97384C178.536 5.35835 179.472 5.06287 180.412 5.15189H182.073V6.66128H180.447C180.211 6.63183 179.971 6.6538 179.743 6.72578C179.515 6.79776 179.305 6.91825 179.125 7.07915C178.767 7.52679 178.59 8.09806 178.632 8.67536C178.581 9.26793 178.75 9.85841 179.104 10.3295C179.444 10.6012 179.871 10.7312 180.3 10.693H181.071L183.488 5.15299H186.059L188.962 11.814V5.15299H191.573L194.588 10.0596V5.15299H196.345V12.198H193.914L190.663 6.90963V12.198H187.17L186.503 10.6263H182.941L182.293 12.198H180.285C179.392 12.254 178.509 11.9774 177.799 11.4191C177.468 11.0631 177.216 10.6391 177.058 10.1754C176.9 9.71168 176.841 9.21884 176.883 8.72966C176.844 8.22994 176.906 7.72736 177.065 7.25335C177.225 6.77934 177.478 6.34417 177.809 5.97494L177.807 5.97384ZM174.282 5.15189H176.018V12.1969H174.269L174.282 5.15189ZM166.391 5.15189H170.336C171.046 5.08284 171.76 5.19916 172.413 5.49037C172.691 5.63498 172.921 5.85997 173.076 6.13729C173.23 6.41461 173.302 6.73218 173.282 7.05076C173.289 7.45275 173.176 7.8474 172.96 8.1828C172.744 8.5182 172.433 8.77865 172.07 8.9295C172.399 9.04716 172.692 9.25149 172.919 9.52212C173.157 9.90625 173.258 10.3632 173.203 10.8149V12.1991H171.472V11.3105C171.543 10.8348 171.447 10.3491 171.201 9.93888C170.838 9.67746 170.39 9.56906 169.951 9.63623H168.11V12.1991H166.394V5.1541L166.391 5.15189ZM159.478 5.15189H165.207V6.61938H161.193V7.88952H165.111V9.33358H161.193V10.7404H165.207V12.1969H159.478V5.15189Z" fill="#767676"></path><rect x="437.871" y="3" width="1.44414" height="23.6839" fill="#767676"></rect><rect x="489.427" y="3.00002" width="1.44414" height="23.6839" fill="#767676"></rect><rect x="439.604" y="3.00002" width="0.866485" height="23.6839" fill="#767676"></rect><rect x="441.481" y="3.00002" width="2.59946" height="10.5422" fill="#767676"></rect><rect x="454.768" y="3.00003" width="2.59946" height="10.5422" fill="#767676"></rect><rect x="479.174" y="3.00003" width="2.59946" height="10.5422" fill="#767676"></rect><rect x="444.803" y="3.00003" width="1.0109" height="10.5422" fill="#767676"></rect><rect x="448.991" y="3.00003" width="1.0109" height="10.5422" fill="#767676"></rect><rect x="457.945" y="3.00003" width="1.0109" height="10.5422" fill="#767676"></rect><rect x="462.421" y="3.00002" width="1.0109" height="10.5422" fill="#767676"></rect><rect x="467.765" y="3.00003" width="1.0109" height="10.5422" fill="#767676"></rect><rect x="472.097" y="3.00003" width="1.0109" height="10.5422" fill="#767676"></rect><rect x="477.874" y="3.00003" width="1.0109" height="10.5422" fill="#767676"></rect><rect x="486.539" y="3.00003" width="1.0109" height="10.5422" fill="#767676"></rect><rect x="450.291" y="3.00003" width="0.577657" height="10.5422" fill="#767676"></rect><rect x="463.721" y="3.00003" width="0.577657" height="10.5422" fill="#767676"></rect><rect x="469.209" y="3.00003" width="0.577657" height="10.5422" fill="#767676"></rect><rect x="473.83" y="3.00003" width="0.577657" height="10.5422" fill="#767676"></rect><rect x="474.841" y="3.00003" width="0.577657" height="10.5422" fill="#767676"></rect><rect x="482.639" y="3.00003" width="0.577657" height="10.5422" fill="#767676"></rect><rect x="487.838" y="3.00003" width="0.577657" height="10.5422" fill="#767676"></rect><rect x="453.179" y="3.00003" width="0.866485" height="10.5422" fill="#767676"></rect><rect x="446.103" y="3.00003" width="1.73297" height="10.5422" fill="#767676"></rect><rect x="459.533" y="3.00003" width="1.73297" height="10.5422" fill="#767676"></rect><rect x="465.165" y="3.00003" width="1.73297" height="10.5422" fill="#767676"></rect><rect x="470.075" y="3.00003" width="1.73297" height="10.5422" fill="#767676"></rect><rect x="475.852" y="3.00003" width="1.73297" height="10.5422" fill="#767676"></rect><rect x="483.795" y="3.00002" width="1.73297" height="10.5422" fill="#767676"></rect><rect x="451.157" y="3.00003" width="1.73297" height="10.5422" fill="#767676"></rect><path d="M442.307 25.7875V14.8041H447.061C447.783 14.8041 448.41 14.9244 448.944 15.165C449.477 15.4056 449.89 15.7456 450.183 16.1849C450.476 16.6138 450.623 17.1211 450.623 17.7069C450.623 18.2403 450.487 18.7111 450.215 19.119C449.943 19.527 449.561 19.8512 449.069 20.0918C449.686 20.3115 450.168 20.6462 450.513 21.096C450.868 21.5354 451.046 22.0531 451.046 22.6494C451.046 23.2875 450.889 23.8419 450.576 24.3126C450.272 24.7833 449.833 25.1494 449.258 25.4109C448.693 25.662 448.028 25.7875 447.265 25.7875H442.307ZM443.954 19.4642H446.967C447.584 19.4642 448.076 19.3178 448.442 19.0249C448.808 18.732 448.991 18.3345 448.991 17.8324C448.991 17.3303 448.808 16.9328 448.442 16.6399C448.076 16.347 447.584 16.2006 446.967 16.2006H443.954V19.4642ZM443.954 24.391H447.139C447.83 24.391 448.374 24.2289 448.771 23.9046C449.179 23.5803 449.383 23.141 449.383 22.5866C449.383 22.0427 449.179 21.6086 448.771 21.2843C448.374 20.9496 447.83 20.7822 447.139 20.7822H443.954V24.391ZM456.289 25.9444C455.515 25.9444 454.809 25.7613 454.171 25.3952C453.543 25.0291 453.046 24.5322 452.68 23.9046C452.314 23.277 452.131 22.5762 452.131 21.8021C452.131 21.028 452.314 20.3272 452.68 19.6996C453.046 19.0719 453.543 18.5751 454.171 18.209C454.809 17.8324 455.515 17.6441 456.289 17.6441C457.073 17.6441 457.78 17.8324 458.407 18.209C459.035 18.5751 459.532 19.0719 459.898 19.6996C460.264 20.3272 460.447 21.028 460.447 21.8021C460.447 22.5762 460.264 23.277 459.898 23.9046C459.532 24.5322 459.035 25.0291 458.407 25.3952C457.78 25.7613 457.073 25.9444 456.289 25.9444ZM456.289 24.5636C456.781 24.5636 457.225 24.4433 457.623 24.2027C458.02 23.9517 458.334 23.617 458.564 23.1985C458.794 22.7801 458.909 22.3094 458.909 21.7864C458.909 21.2738 458.789 20.8136 458.548 20.4056C458.318 19.9872 458.004 19.6525 457.607 19.4014C457.22 19.1504 456.781 19.0249 456.289 19.0249C455.797 19.0249 455.353 19.1504 454.955 19.4014C454.568 19.6525 454.254 19.9872 454.014 20.4056C453.784 20.8136 453.669 21.2738 453.669 21.7864C453.669 22.3094 453.784 22.7801 454.014 23.1985C454.244 23.617 454.558 23.9517 454.955 24.2027C455.353 24.4433 455.797 24.5636 456.289 24.5636ZM461.931 25.7875V14.8041L463.5 14.506V25.7875H461.931ZM469.176 25.9287C468.392 25.9287 467.68 25.7456 467.042 25.3795C466.415 25.0134 465.913 24.5165 465.536 23.8889C465.17 23.2613 464.987 22.5605 464.987 21.7864C464.987 21.0228 465.165 20.3324 465.52 19.7153C465.876 19.0876 466.357 18.5908 466.964 18.2247C467.57 17.8481 468.245 17.6598 468.988 17.6598C469.731 17.6598 470.39 17.8481 470.965 18.2247C471.54 18.5908 471.995 19.0929 472.33 19.7309C472.675 20.3586 472.848 21.0699 472.848 21.8649V22.3042H466.556C466.639 22.7435 466.802 23.1358 467.042 23.481C467.293 23.8262 467.607 24.0981 467.984 24.2969C468.371 24.4956 468.789 24.595 469.239 24.595C469.626 24.595 469.997 24.5375 470.353 24.4224C470.719 24.2969 471.022 24.1191 471.263 23.8889L472.267 24.8774C471.796 25.2331 471.31 25.4998 470.808 25.6776C470.316 25.845 469.772 25.9287 469.176 25.9287ZM466.572 21.1274H471.294C471.232 20.709 471.085 20.3429 470.855 20.0291C470.635 19.7048 470.358 19.4537 470.023 19.2759C469.699 19.0876 469.343 18.9935 468.956 18.9935C468.559 18.9935 468.193 19.0824 467.858 19.2602C467.523 19.4381 467.241 19.6891 467.011 20.0134C466.791 20.3272 466.645 20.6985 466.572 21.1274ZM477.533 25.9287C476.759 25.9287 476.168 25.7509 475.76 25.3952C475.352 25.0291 475.148 24.5009 475.148 23.8105V19.119H473.453V17.801H475.148V15.7613L476.701 15.3847V17.801H479.055V19.119H476.701V23.4496C476.701 23.8575 476.79 24.1504 476.968 24.3283C477.156 24.4956 477.46 24.5793 477.878 24.5793C478.098 24.5793 478.291 24.5636 478.459 24.5322C478.636 24.5009 478.825 24.4538 479.023 24.391V25.709C478.814 25.7822 478.568 25.8345 478.286 25.8659C478.014 25.9078 477.763 25.9287 477.533 25.9287ZM483.885 25.9444C483.111 25.9444 482.405 25.7613 481.767 25.3952C481.139 25.0291 480.643 24.5322 480.276 23.9046C479.91 23.277 479.727 22.5762 479.727 21.8021C479.727 21.028 479.91 20.3272 480.276 19.6996C480.643 19.0719 481.139 18.5751 481.767 18.209C482.405 17.8324 483.111 17.6441 483.885 17.6441C484.67 17.6441 485.376 17.8324 486.003 18.209C486.631 18.5751 487.128 19.0719 487.494 19.6996C487.86 20.3272 488.043 21.028 488.043 21.8021C488.043 22.5762 487.86 23.277 487.494 23.9046C487.128 24.5322 486.631 25.0291 486.003 25.3952C485.376 25.7613 484.67 25.9444 483.885 25.9444ZM483.885 24.5636C484.377 24.5636 484.821 24.4433 485.219 24.2027C485.616 23.9517 485.93 23.617 486.16 23.1985C486.39 22.7801 486.506 22.3094 486.506 21.7864C486.506 21.2738 486.385 20.8136 486.145 20.4056C485.915 19.9872 485.601 19.6525 485.203 19.4014C484.816 19.1504 484.377 19.0249 483.885 19.0249C483.394 19.0249 482.949 19.1504 482.552 19.4014C482.165 19.6525 481.851 19.9872 481.61 20.4056C481.38 20.8136 481.265 21.2738 481.265 21.7864C481.265 22.3094 481.38 22.7801 481.61 23.1985C481.84 23.617 482.154 23.9517 482.552 24.2027C482.949 24.4433 483.394 24.5636 483.885 24.5636Z" fill="#767676"></path><path fill-rule="evenodd" clip-rule="evenodd" d="M561.422 2.04058C561.289 2.10155 560.305 3.12207 560.251 3.25398C560.191 3.40106 560.195 3.56332 560.262 3.7087C560.329 3.85329 561.325 4.86691 561.446 4.91238C561.552 4.9527 561.791 4.9524 561.896 4.91178C562.018 4.86498 563.014 3.85239 563.08 3.7087C563.149 3.55698 563.149 3.38395 563.08 3.23261C563.013 3.08803 562.016 2.07441 561.896 2.02894C561.782 1.98574 561.527 1.99196 561.422 2.04058ZM522.909 3.84403C522.179 3.91476 521.566 4.1562 520.961 4.61191C520.788 4.74215 515.878 9.69693 515.878 9.74123C515.878 9.75373 516.12 9.76397 516.416 9.76397C517.172 9.76397 517.61 9.84814 518.126 10.092C518.701 10.364 518.724 10.3842 520.932 12.6219C522.505 14.2161 523.013 14.7144 523.114 14.7607C523.275 14.8341 523.54 14.8414 523.694 14.7766C523.77 14.7447 524.413 14.1124 525.81 12.6972C527.872 10.608 528.063 10.4309 528.521 10.1901C529.044 9.91489 529.514 9.79786 530.197 9.77221C530.443 9.76298 530.644 9.74689 530.644 9.73647C530.644 9.72606 529.527 8.5852 528.161 7.20121C525.916 4.92592 525.65 4.66597 525.383 4.48753C524.914 4.17325 524.527 4.01111 523.993 3.90405C523.65 3.83511 523.237 3.81228 522.909 3.84403ZM546.234 6.10828C543.927 6.3532 541.998 8.05561 541.431 10.3476C541.256 11.0556 541.265 10.5905 541.265 19.3304V27.3644L541.334 27.4769C541.415 27.6098 541.585 27.7066 541.738 27.7066C541.875 27.7066 542.067 27.6114 542.144 27.5053C542.202 27.4245 542.202 27.3644 542.218 19.3453C542.232 11.9278 542.237 11.2446 542.283 10.9979C542.413 10.2886 542.639 9.70904 543 9.15398C543.755 7.99595 544.983 7.23917 546.354 7.08763C546.737 7.04538 551.305 7.04529 551.714 7.08754C552.932 7.21332 553.951 7.73773 554.754 8.65221C555.264 9.23217 555.611 9.92343 555.801 10.7333L555.884 11.0881V13.3644C555.884 15.6359 555.884 15.6413 555.817 15.9485C555.605 16.9067 555.218 17.6296 554.553 18.3052C554.006 18.8601 553.451 19.2141 552.761 19.4468C552.013 19.699 551.953 19.7023 548.114 19.7023C545.134 19.7023 544.809 19.7069 544.718 19.7506C544.566 19.8242 544.491 19.952 544.479 20.1623C544.465 20.3848 544.54 20.5168 544.736 20.6173L544.866 20.6843L548.149 20.684C551.515 20.6838 551.854 20.6742 552.413 20.5635C554.439 20.1618 556.135 18.562 556.674 16.5424C556.85 15.8843 556.844 15.9761 556.857 13.5302C556.87 11.0742 556.865 10.9777 556.703 10.323C556.127 8.00482 554.155 6.31401 551.783 6.10575C551.355 6.06823 546.591 6.07041 546.234 6.10828ZM557.41 6.14063C557.255 6.2312 557.176 6.37469 557.176 6.56524C557.176 6.75615 557.255 6.89984 557.41 6.98875C557.523 7.05427 557.541 7.05523 558.626 7.05573C559.282 7.056 559.797 7.06915 559.9 7.08822C560.486 7.19612 561.019 7.71512 561.158 8.31308C561.195 8.47394 561.201 9.30671 561.202 14.4207C561.203 20.1304 561.205 20.3465 561.258 20.464C561.341 20.6493 561.471 20.7289 561.691 20.7289C561.893 20.7289 561.988 20.6776 562.103 20.506L562.169 20.4077V14.4002C562.169 7.78953 562.18 8.20888 561.991 7.71009C561.764 7.11075 561.211 6.53087 560.639 6.29131C560.168 6.09403 560.162 6.09341 558.785 6.08278L557.525 6.07305L557.41 6.14063ZM565.186 6.14122C565.045 6.23864 564.977 6.34701 564.96 6.50028C564.94 6.68028 565.033 6.87988 565.181 6.97325C565.288 7.04079 565.299 7.04145 566.593 7.0579C567.893 7.07445 567.898 7.07475 568.19 7.15473C568.544 7.25188 569.054 7.50049 569.332 7.71253C569.445 7.79837 570.645 8.98934 571.998 10.3591C573.848 12.2309 574.499 12.8724 574.621 12.9412C575.22 13.2816 575.895 13.2982 576.525 12.9881L576.803 12.8512L579.294 10.3297C581.246 8.35302 581.834 7.77436 582.016 7.65117C582.466 7.34621 582.971 7.153 583.483 7.08921C583.628 7.07114 584.153 7.05633 584.649 7.0563C585.629 7.05621 585.687 7.04794 585.808 6.89213C585.861 6.82301 585.871 6.77145 585.871 6.56351C585.871 6.32824 585.867 6.31273 585.782 6.22606C585.631 6.07314 585.569 6.06674 584.404 6.08278C583.47 6.09567 583.301 6.10525 583.046 6.15973C582.378 6.30232 581.806 6.56268 581.287 6.9601C581.19 7.03434 580.003 8.21563 578.649 9.58522C575.883 12.3838 576.076 12.2157 575.631 12.2157C575.187 12.2157 575.38 12.3837 572.614 9.58543C571.26 8.21599 570.07 7.03202 569.969 6.95435C569.397 6.51599 568.691 6.21493 567.979 6.10641C567.853 6.08728 567.266 6.07427 566.526 6.07427C565.285 6.07427 565.283 6.07439 565.186 6.14122ZM513.275 12.3672C512.439 13.2184 511.696 13.9952 511.624 14.0934C511.317 14.5071 511.087 15.005 510.951 15.5514C510.865 15.8947 510.844 16.6979 510.91 17.0827C510.997 17.5927 511.206 18.1214 511.505 18.5865C511.603 18.7384 512.072 19.2342 513.238 20.4173L514.838 22.0398L515.907 22.0206C516.926 22.0023 516.99 21.9978 517.257 21.9261C517.541 21.8499 517.865 21.702 518.104 21.5389C518.177 21.4896 519.166 20.5089 520.302 19.3596C522.286 17.3518 522.376 17.2657 522.587 17.1623C522.917 17.0009 523.128 16.9564 523.493 16.9711C523.843 16.9851 524.116 17.0664 524.382 17.235C524.475 17.294 525.338 18.144 526.572 19.3909C527.692 20.5231 528.667 21.4897 528.74 21.5389C529.054 21.7523 529.444 21.9076 529.8 21.9614C529.918 21.9793 530.4 21.9971 530.872 22.0011L531.729 22.0084L533.292 20.4165C534.911 18.7674 535.012 18.6514 535.254 18.1645C535.52 17.6269 535.624 17.2048 535.646 16.5738C535.676 15.6771 535.487 14.9909 535.005 14.252C534.851 14.0165 534.588 13.7346 533.269 12.3952L531.713 10.8161L530.791 10.8367C529.997 10.8544 529.832 10.8661 529.61 10.9204C529.322 10.991 529.004 11.1305 528.749 11.2989C528.642 11.3692 527.807 12.1905 526.513 13.4984C524.633 15.3981 524.429 15.5952 524.242 15.6923C523.938 15.8508 523.73 15.9025 523.407 15.9006C523.065 15.8986 522.746 15.8044 522.468 15.6232C522.334 15.5366 521.686 14.9 520.243 13.44C519.123 12.3065 518.148 11.3388 518.075 11.2896C517.859 11.143 517.596 11.0191 517.322 10.9353C517.046 10.8506 517.096 10.8533 515.314 10.8272L514.793 10.8195L513.275 12.3672ZM575.368 13.5158C575.117 13.5459 574.879 13.6272 574.624 13.7699C574.458 13.8622 574.067 14.2457 571.94 16.3988C569.277 19.0944 569.264 19.1065 568.722 19.3607C568.436 19.4948 568.03 19.6042 567.677 19.6418C567.524 19.6582 566.923 19.6718 566.341 19.6721C565.293 19.6726 565.282 19.6732 565.186 19.7395C565.045 19.8369 564.977 19.9453 564.96 20.0986C564.94 20.2786 565.033 20.4782 565.181 20.5716L565.289 20.6396L566.549 20.6385C567.598 20.6375 567.853 20.629 568.072 20.5876C568.491 20.5087 568.838 20.3959 569.193 20.2236C569.866 19.8957 569.83 19.9291 572.555 17.1719C574.431 15.2745 575.078 14.637 575.178 14.5892C575.371 14.4972 575.584 14.4631 575.773 14.4942C576.127 14.5527 576.072 14.5033 578.693 17.1569C580.039 18.5193 581.219 19.6933 581.315 19.7658C581.832 20.1534 582.36 20.3966 582.994 20.5394C583.25 20.5971 583.389 20.6046 584.41 20.6167C585.51 20.6297 585.544 20.6284 585.66 20.5683C585.839 20.4756 585.871 20.4105 585.871 20.141C585.871 19.8797 585.833 19.7912 585.684 19.7083C585.604 19.6642 585.451 19.6555 584.479 19.6403C583.402 19.6234 583.357 19.6204 583.083 19.5459C582.709 19.4444 582.388 19.3002 582.071 19.0925C581.848 18.9459 581.48 18.5852 579.352 16.4306C577.999 15.0598 576.832 13.898 576.759 13.8488C576.352 13.5721 575.866 13.4559 575.368 13.5158ZM523.114 18.0832C523.049 18.1118 522.269 18.8806 520.961 20.2049C518.793 22.4 518.747 22.4427 518.207 22.7157C517.971 22.835 517.532 22.9832 517.255 23.037C517.15 23.0573 516.797 23.0819 516.471 23.0916L515.877 23.1093L518.39 25.6571C521.005 28.3089 521.054 28.3544 521.547 28.6066C521.815 28.7434 522.188 28.8762 522.499 28.9449C522.688 28.9868 522.871 29 523.261 29C523.827 29 524.073 28.9611 524.521 28.8007C524.838 28.687 525.058 28.575 525.37 28.3684C525.581 28.2293 526.012 27.8059 528.132 25.657C529.514 24.2564 530.644 23.1002 530.644 23.0876C530.644 23.075 530.461 23.0647 530.238 23.0647C529.436 23.0647 528.808 22.874 528.154 22.4318C527.989 22.3206 527.422 21.7655 525.898 20.2222C524.536 18.8442 523.821 18.1404 523.738 18.0986C523.589 18.0227 523.271 18.0149 523.114 18.0832ZM557.423 25.5082C557.423 25.8066 557.422 25.809 557.357 25.7885C557.32 25.7772 557.158 25.7606 556.996 25.7516C556.537 25.7264 556.249 25.8363 556.122 26.0849C556.048 26.2295 556.023 26.5903 556.075 26.7842C556.119 26.9495 556.285 27.1234 556.442 27.1676C556.612 27.2154 556.903 27.2073 557.196 27.1465C557.399 27.1042 557.452 27.1013 557.452 27.1321C557.452 27.1555 557.487 27.171 557.54 27.171H557.628V26.189V25.2071H557.525H557.423V25.5082ZM559.034 26.189V27.171H559.105C559.144 27.171 559.18 27.1585 559.185 27.1432C559.191 27.1269 559.268 27.1329 559.371 27.1576C559.468 27.1808 559.639 27.2 559.753 27.2003C560.327 27.2016 560.616 26.9579 560.616 26.4733C560.616 26.2127 560.578 26.0694 560.477 25.9477C560.308 25.7443 560.014 25.6959 559.503 25.7873C559.366 25.8118 559.25 25.8319 559.246 25.832C559.242 25.832 559.239 25.6914 559.239 25.5195V25.2071H559.137H559.034V26.189ZM585.285 26.189V27.171H585.49H585.695V26.189V25.2071H585.49H585.285V26.189ZM575.288 25.2662C574.924 25.3126 574.664 25.4844 574.525 25.7708C574.469 25.8875 574.459 25.954 574.459 26.2486C574.459 26.5648 574.466 26.6039 574.543 26.764C574.734 27.1585 575.153 27.2785 575.91 27.1551C576.315 27.089 576.291 27.1055 576.291 26.9012C576.291 26.8041 576.285 26.7246 576.278 26.7246C576.271 26.7246 576.173 26.7443 576.06 26.7684C575.742 26.8365 575.415 26.8555 575.267 26.8147C575.003 26.742 574.863 26.4925 574.893 26.1499C574.912 25.9371 575.01 25.7747 575.167 25.6953C575.264 25.6463 575.347 25.6386 575.771 25.6386H576.261L576.261 25.4526V25.2666L576.064 25.2664C575.955 25.2663 575.78 25.2606 575.675 25.2537C575.571 25.2468 575.396 25.2524 575.288 25.2662ZM563.546 26.2367V27.1771L564.256 27.1661C564.952 27.1553 564.97 27.1534 565.133 27.0765C565.332 26.9825 565.398 26.8895 565.413 26.6847C565.428 26.4825 565.358 26.3431 565.201 26.2626L565.083 26.2023L565.19 26.0989C565.365 25.9287 565.367 25.6187 565.195 25.4565C565.054 25.3238 564.881 25.2964 564.185 25.2964H563.546V26.2367ZM580.792 25.4675C580.782 25.5289 580.774 25.6226 580.774 25.6758C580.773 25.7719 580.772 25.7725 580.627 25.7725H580.48V25.9212V26.07H580.627H580.773V26.4474C580.773 26.7677 580.782 26.8441 580.834 26.9515C580.936 27.1667 581.167 27.2386 581.575 27.1818L581.711 27.1629V27.0093V26.8557L581.524 26.8678C581.419 26.8746 581.311 26.8654 581.277 26.8465C581.193 26.801 581.154 26.6394 581.154 26.3304L581.154 26.07H581.418H581.681V25.9212V25.7725H581.418H581.154V25.5642V25.3559H580.982H580.81L580.792 25.4675ZM564.777 25.6689C564.892 25.7289 564.919 25.8428 564.844 25.9454C564.767 26.0493 564.705 26.0635 564.315 26.0671L563.985 26.07V25.8469V25.6237H564.338C564.597 25.6237 564.714 25.6358 564.777 25.6689ZM545.163 25.7942C544.994 25.8271 544.926 25.8304 544.918 25.8061C544.912 25.7876 544.869 25.7725 544.822 25.7725H544.736V26.7246V27.6768H544.839H544.942V27.4064V27.136L545.066 27.1609C545.135 27.1746 545.329 27.1854 545.498 27.185C545.768 27.1842 545.827 27.1743 545.972 27.1058C546.219 26.9896 546.301 26.85 546.314 26.5212C546.327 26.2317 546.292 26.083 546.18 25.9481C546.01 25.743 545.681 25.6931 545.163 25.7942ZM547.124 25.7705C546.9 25.826 546.726 25.9847 546.671 26.1825C546.632 26.3275 546.633 26.6198 546.674 26.7686C546.749 27.0463 547.037 27.2014 547.474 27.2C548.048 27.1982 548.297 27.012 548.333 26.5579C548.365 26.1552 548.213 25.8838 547.903 25.7906C547.738 25.7409 547.291 25.7294 547.124 25.7705ZM551.638 25.7871C551.461 25.851 551.38 25.9242 551.29 26.1013C551.214 26.2495 551.208 26.2853 551.218 26.5164C551.231 26.8317 551.308 26.9901 551.504 27.1065C551.618 27.1746 551.674 27.1861 551.929 27.1939C552.09 27.1988 552.328 27.1857 552.457 27.1646C552.682 27.1278 552.691 27.123 552.7 27.0419L552.71 26.9575L552.51 26.9824C552.4 26.9961 552.178 27.0071 552.017 27.0068C551.606 27.0061 551.468 26.9201 551.416 26.6342L551.395 26.5164H552.08H552.764V26.359C552.764 26.0721 552.598 25.8492 552.328 25.7729C552.176 25.73 551.773 25.7382 551.638 25.7871ZM553.572 25.7956C553.42 25.8308 553.365 25.8338 553.357 25.8076C553.35 25.7883 553.313 25.7725 553.274 25.7725H553.204V26.4717V27.171H553.292H553.379V26.5953V26.0197L553.6 25.9705C553.721 25.9434 553.873 25.9212 553.937 25.9212C554.047 25.9212 554.053 25.9162 554.053 25.832C554.053 25.7449 554.05 25.7428 553.914 25.7456C553.838 25.7472 553.683 25.7697 553.572 25.7956ZM554.597 25.7871C554.432 25.8467 554.342 25.9228 554.261 26.0698C554.176 26.2251 554.146 26.5533 554.2 26.7539C554.245 26.9239 554.434 27.122 554.595 27.1674C554.746 27.2097 555.149 27.207 555.43 27.1617C555.641 27.1279 555.65 27.1227 555.66 27.0413L555.669 26.9563L555.484 26.9818C555.15 27.0277 554.696 27.0133 554.587 26.9534C554.467 26.8875 554.376 26.7406 554.376 26.6131L554.376 26.5164H555.065H555.755L555.736 26.3601C555.696 26.0369 555.554 25.8463 555.298 25.7756C555.135 25.7303 554.736 25.7369 554.597 25.7871ZM566.014 25.7611C565.992 25.7708 565.978 25.8338 565.978 25.9168V26.0562L566.386 26.0557C566.754 26.0552 566.801 26.0611 566.876 26.1176C566.922 26.152 566.963 26.2089 566.969 26.2441C566.978 26.3068 566.97 26.3081 566.588 26.3094C566.114 26.311 565.941 26.358 565.839 26.5133C565.712 26.707 565.77 27.0148 565.956 27.1263C566.093 27.2087 566.477 27.2185 566.805 27.1482C567.008 27.1047 567.062 27.1014 567.062 27.1321C567.062 27.1594 567.11 27.171 567.223 27.171H567.384V26.6491C567.384 26.0236 567.359 25.9428 567.129 25.8277C567.001 25.764 566.946 25.757 566.52 25.7512C566.262 25.7477 566.034 25.7522 566.014 25.7611ZM568.425 25.7942C568.256 25.8271 568.189 25.8304 568.181 25.8061C568.175 25.7866 568.103 25.7725 568.011 25.7725H567.853V26.4717V27.171H568.058H568.263V26.6683C568.263 26.2473 568.27 26.1629 568.307 26.1484C568.332 26.1389 568.46 26.1155 568.593 26.0963C568.801 26.0664 568.85 26.0681 568.944 26.109C569.011 26.1378 569.066 26.1869 569.083 26.2342C569.099 26.2769 569.113 26.5052 569.113 26.7415V27.171H569.32H569.527L569.518 26.6279C569.507 25.9978 569.484 25.925 569.259 25.8097C569.102 25.7287 568.791 25.7229 568.425 25.7942ZM570.287 25.7912C570.098 25.859 570 25.9437 569.918 26.1114C569.835 26.2812 569.818 26.5827 569.881 26.7949C569.93 26.9627 570.096 27.1234 570.264 27.1663C570.429 27.2085 570.762 27.2059 571.017 27.1603L571.207 27.1264L571.216 26.9664L571.225 26.8063L571.143 26.8243C571.098 26.8342 570.942 26.8511 570.796 26.8619C570.578 26.8781 570.515 26.8727 570.435 26.8309C570.192 26.703 570.198 26.2359 570.445 26.117C570.516 26.0829 570.632 26.07 570.869 26.07H571.196L571.187 25.9138L571.178 25.7576L570.797 25.7511C570.514 25.7463 570.383 25.7566 570.287 25.7912ZM571.844 25.7973C571.543 25.9061 571.428 26.0919 571.428 26.4717C571.428 27.0246 571.706 27.2249 572.429 27.1947C572.704 27.1831 572.764 27.1707 572.911 27.0943C573.049 27.0229 573.093 26.9804 573.154 26.8592C573.217 26.7341 573.229 26.6718 573.228 26.4576C573.228 26.1218 573.154 25.9759 572.921 25.8479C572.77 25.765 572.737 25.7591 572.379 25.7505C572.065 25.7429 571.972 25.751 571.844 25.7973ZM576.974 25.7854C576.688 25.8763 576.554 26.067 576.532 26.4122C576.515 26.6796 576.561 26.8475 576.691 26.994C576.866 27.1907 577.206 27.2459 577.775 27.1703C578.157 27.1197 578.136 27.1315 578.136 26.9597C578.136 26.8106 578.136 26.8094 578.055 26.8274C577.875 26.8674 577.395 26.8929 577.25 26.87C577.133 26.8516 577.077 26.8238 577.016 26.7549C576.859 26.5783 576.866 26.5759 577.58 26.5759H578.225L578.208 26.4048C578.171 26.0356 578.058 25.8724 577.778 25.7881C577.595 25.7327 577.145 25.7312 576.974 25.7854ZM579.308 25.7637C579.268 25.7708 579.166 25.7945 579.081 25.8163C578.95 25.8502 578.927 25.8499 578.927 25.8143C578.927 25.783 578.883 25.7725 578.752 25.7725H578.576V26.4717V27.171H578.781H578.986V26.6683C578.986 26.2805 578.995 26.1622 579.025 26.1507C579.126 26.1113 579.52 26.0647 579.609 26.0816C579.664 26.0921 579.741 26.135 579.78 26.177C579.847 26.2497 579.851 26.2755 579.861 26.7122L579.871 27.171H580.059H580.246V26.6493C580.246 26.0905 580.227 25.9912 580.096 25.8733C580.057 25.8387 579.981 25.7952 579.927 25.7766C579.831 25.7442 579.463 25.7365 579.308 25.7637ZM582.604 25.7915C582.477 25.8231 582.414 25.8265 582.378 25.8039C582.35 25.7866 582.261 25.7725 582.18 25.7725H582.033V26.4717V27.171H582.238H582.443V26.6683C582.443 26.2176 582.449 26.1635 582.494 26.1443C582.523 26.1325 582.668 26.1159 582.817 26.1073L583.088 26.0917V25.9172V25.7427L582.934 25.7452C582.849 25.7466 582.701 25.7674 582.604 25.7915ZM583.461 25.7632C583.422 25.7738 583.41 25.8085 583.41 25.9173V26.0577L583.798 26.0564C584.226 26.055 584.348 26.0855 584.402 26.2073C584.421 26.2479 584.435 26.286 584.435 26.2919C584.435 26.2979 584.234 26.3073 583.989 26.3128C583.606 26.3215 583.528 26.3315 583.442 26.3825C583.282 26.4784 583.22 26.5867 583.22 26.7693C583.22 26.9498 583.286 27.0681 583.427 27.1399C583.559 27.207 583.877 27.2135 584.193 27.1556C584.397 27.1183 584.48 27.1132 584.488 27.1374C584.494 27.1574 584.57 27.171 584.676 27.171H584.852L584.84 26.6428C584.831 26.2211 584.818 26.0956 584.779 26.0203C584.718 25.9039 584.604 25.8193 584.45 25.776C584.338 25.7446 583.569 25.7346 583.461 25.7632ZM548.558 25.8245C548.567 25.8532 548.691 26.1645 548.833 26.5164C549.084 27.1336 549.096 27.1564 549.179 27.165C549.265 27.1737 549.268 27.1673 549.512 26.6236C549.647 26.321 549.765 26.0783 549.775 26.0843C549.784 26.0903 549.903 26.3379 550.037 26.6346C550.279 27.165 550.284 27.1739 550.368 27.1651C550.451 27.1564 550.464 27.1309 550.73 26.4742C550.882 26.0991 551.006 25.7878 551.006 25.7824C551.006 25.7769 550.961 25.7725 550.907 25.7725H550.807L550.592 26.3213C550.473 26.6231 550.367 26.8608 550.356 26.8494C550.345 26.8381 550.23 26.5945 550.1 26.3081C549.87 25.7979 549.863 25.7873 549.775 25.7873C549.686 25.7873 549.681 25.7957 549.447 26.3313C549.316 26.6305 549.2 26.8648 549.188 26.852C549.176 26.8392 549.071 26.5911 548.955 26.3006L548.744 25.7725H548.642C548.559 25.7725 548.544 25.7818 548.558 25.8245ZM560.839 25.9287C560.882 26.0146 561.041 26.3243 561.193 26.6168C561.498 27.2026 561.498 27.2056 561.33 27.3901C561.232 27.4969 561.146 27.5281 560.949 27.5281C560.791 27.5281 560.788 27.5294 560.797 27.6099C560.806 27.6861 560.817 27.6923 560.959 27.7007C561.17 27.713 561.325 27.6639 561.436 27.5501C561.493 27.4919 561.692 27.1261 561.937 26.6282C562.161 26.1741 562.345 25.7959 562.345 25.7876C562.345 25.7793 562.298 25.7725 562.241 25.7725H562.137L561.855 26.3535L561.573 26.9346L561.278 26.3536L560.982 25.7726L560.872 25.7725L560.762 25.7725L560.839 25.9287ZM545.879 25.9734C546.083 26.0775 546.18 26.3537 546.113 26.6377C546.072 26.8122 545.94 26.9437 545.755 26.9946C545.612 27.0341 545.145 27.0164 545.022 26.9668L544.942 26.9344V26.4752V26.016L545.169 25.9716C545.49 25.9089 545.753 25.9096 545.879 25.9734ZM547.871 25.9882C548.056 26.0841 548.115 26.1819 548.13 26.4118C548.145 26.6546 548.126 26.7287 548.018 26.854C547.903 26.9875 547.735 27.0333 547.422 27.0167C547.157 27.0025 547.029 26.9492 546.926 26.81C546.844 26.6979 546.812 26.4841 546.849 26.305C546.909 26.0219 547.072 25.9247 547.492 25.9226C547.695 25.9215 547.766 25.9338 547.871 25.9882ZM552.351 25.979C552.476 26.0442 552.542 26.1303 552.572 26.2713L552.593 26.3676H552.001H551.409L551.428 26.2724C551.476 26.0305 551.654 25.9229 552.011 25.9219C552.18 25.9214 552.268 25.9362 552.351 25.979ZM555.311 25.9734C555.432 26.036 555.511 26.1403 555.536 26.2709L555.555 26.3676H554.962H554.368L554.386 26.2784C554.434 26.0329 554.616 25.9229 554.976 25.922C555.142 25.9215 555.24 25.9365 555.311 25.9734ZM557.275 25.9535L557.423 25.9857V26.456V26.9262L557.225 26.9664C556.932 27.0259 556.546 27.0202 556.448 26.9548C556.276 26.8404 556.197 26.5861 556.251 26.3203C556.285 26.1527 556.405 26.0111 556.558 25.957C556.676 25.9155 557.091 25.9134 557.275 25.9535ZM560.226 25.9977C560.353 26.0917 560.422 26.2616 560.42 26.4722C560.417 26.7602 560.299 26.9265 560.048 26.9958C559.909 27.0341 559.441 27.0155 559.32 26.9668L559.239 26.9344V26.4752V26.016L559.466 25.9702C559.784 25.9061 560.119 25.9182 560.226 25.9977ZM577.617 26.0505C577.723 26.0955 577.768 26.1431 577.798 26.2411L577.818 26.3081H577.377C577.134 26.3081 576.935 26.3007 576.935 26.2917C576.935 26.2268 577.043 26.0881 577.12 26.0541C577.24 26.001 577.496 25.9992 577.617 26.0505ZM572.623 26.1081C572.744 26.1684 572.814 26.2915 572.817 26.4487C572.821 26.7589 572.687 26.8787 572.335 26.8787C571.989 26.8787 571.837 26.7554 571.837 26.4751C571.837 26.235 571.919 26.1242 572.138 26.0676C572.256 26.0371 572.527 26.0597 572.623 26.1081ZM564.848 26.4265C564.998 26.4842 565.021 26.7134 564.886 26.7896C564.846 26.8122 564.659 26.8311 564.403 26.8384L563.985 26.8503V26.6238V26.3973H564.379C564.595 26.3973 564.807 26.4105 564.848 26.4265ZM566.968 26.7139L566.977 26.837L566.79 26.8701C566.49 26.9231 566.281 26.9136 566.212 26.8437C566.12 26.7498 566.142 26.662 566.271 26.6085C566.311 26.5921 566.482 26.5814 566.652 26.5847L566.959 26.5907L566.968 26.7139ZM584.389 26.5939C584.42 26.6059 584.435 26.6492 584.435 26.7227V26.8334L584.249 26.8683C583.985 26.9177 583.759 26.9127 583.679 26.8557C583.59 26.7926 583.603 26.6655 583.703 26.6142C583.778 26.5757 584.303 26.5602 584.389 26.5939Z" fill="#767676"></path></svg>